<svg width="230" height="56" viewBox="0 0 230 56" fill="none" xmlns="http://www.w3.org/2000/svg">
<path d="M61.8359 38.1844V14.5723H66.1533L77.2503 31.2019V14.5723H81.5676V38.1844H77.2503L66.1533 21.5884V38.1844H61.8359Z" fill="white"/>
<path d="M93.7339 38.5892C92.1149 38.5892 90.6533 38.2181 89.3491 37.476C88.0674 36.7339 87.0443 35.7107 86.2797 34.4064C85.5377 33.0797 85.1667 31.5505 85.1667 29.8189C85.1667 28.0874 85.5489 26.5695 86.3135 25.2652C87.078 23.9384 88.1011 22.904 89.3828 22.1619C90.687 21.4198 92.1486 21.0487 93.7676 21.0487C95.3642 21.0487 96.8033 21.4198 98.085 22.1619C99.3892 22.904 100.412 23.9384 101.154 25.2652C101.919 26.5695 102.301 28.0874 102.301 29.8189C102.301 31.5505 101.919 33.0797 101.154 34.4064C100.412 35.7107 99.3892 36.7339 98.085 37.476C96.7808 38.2181 95.3304 38.5892 93.7339 38.5892ZM93.7339 34.845C94.8582 34.845 95.8364 34.4289 96.6684 33.5969C97.5004 32.7424 97.9164 31.483 97.9164 29.8189C97.9164 28.1549 97.5004 26.9068 96.6684 26.0747C95.8364 25.2202 94.8695 24.7929 93.7676 24.7929C92.6208 24.7929 91.6315 25.2202 90.7995 26.0747C89.99 26.9068 89.5852 28.1549 89.5852 29.8189C89.5852 31.483 89.99 32.7424 90.7995 33.5969C91.6315 34.4289 92.6096 34.845 93.7339 34.845Z" fill="white"/>
<path d="M103.012 38.1844L109.083 29.8189L103.012 21.4535H107.633L111.883 27.3903L116.099 21.4535H120.754L114.649 29.8189L120.754 38.1844H116.099L111.883 32.2476L107.633 38.1844H103.012Z" fill="white"/>
<path d="M130.115 38.5892C128.024 38.5892 126.405 37.937 125.258 36.6327C124.134 35.3284 123.572 33.417 123.572 30.8984V21.4535H127.855V30.4936C127.855 31.9328 128.148 33.0347 128.732 33.7993C129.317 34.5639 130.239 34.9462 131.498 34.9462C132.69 34.9462 133.668 34.5189 134.433 33.6644C135.22 32.8098 135.613 31.618 135.613 30.0888V21.4535H139.931V38.1844H136.119L135.782 35.3509C135.265 36.3404 134.511 37.1275 133.522 37.7121C132.555 38.2968 131.419 38.5892 130.115 38.5892Z" fill="white"/>
<path d="M144.464 38.1844V14.5723H152.525C155.291 14.5723 157.562 15.067 159.338 16.0565C161.137 17.0234 162.464 18.3952 163.318 20.1717C164.195 21.9258 164.634 23.9946 164.634 26.3783C164.634 28.762 164.195 30.8421 163.318 32.6187C162.464 34.3727 161.137 35.7445 159.338 36.7339C157.562 37.7009 155.291 38.1844 152.525 38.1844H144.464ZM148.781 34.4739H152.323C154.301 34.4739 155.864 34.1591 157.011 33.5294C158.158 32.8773 158.979 31.9553 159.473 30.7634C159.968 29.5491 160.215 28.0874 160.215 26.3783C160.215 24.6917 159.968 23.2413 159.473 22.0269C158.979 20.8126 158.158 19.8794 157.011 19.2272C155.864 18.5751 154.301 18.249 152.323 18.249H148.781V34.4739Z" fill="white"/>
<path d="M175.358 38.5892C173.784 38.5892 172.378 38.2069 171.142 37.4423C169.905 36.6777 168.927 35.632 168.207 34.3053C167.488 32.9785 167.128 31.4718 167.128 29.7852C167.128 28.0986 167.488 26.6032 168.207 25.2989C168.927 23.9721 169.905 22.9377 171.142 22.1956C172.378 21.431 173.784 21.0487 175.358 21.0487C176.617 21.0487 177.719 21.2849 178.663 21.7571C179.608 22.2293 180.372 22.8927 180.957 23.7473L181.193 21.4535H185.274V38.1844H181.227L180.957 35.7894C180.417 36.5315 179.698 37.1837 178.798 37.7459C177.921 38.3081 176.774 38.5892 175.358 38.5892ZM176.268 34.8112C177.663 34.8112 178.798 34.3502 179.675 33.4282C180.575 32.4837 181.024 31.2807 181.024 29.8189C181.024 28.3572 180.575 27.1654 179.675 26.2434C178.798 25.2989 177.663 24.8267 176.268 24.8267C174.897 24.8267 173.761 25.2877 172.862 26.2097C171.962 27.1317 171.513 28.3235 171.513 29.7852C171.513 31.2469 171.962 32.45 172.862 33.3945C173.761 34.339 174.897 34.8112 176.268 34.8112Z" fill="white"/>
<path d="M197.125 38.1844C195.371 38.1844 193.965 37.7571 192.909 36.9026C191.852 36.0481 191.323 34.5301 191.323 32.3488V25.0628H188.456V21.4535H191.323L191.829 16.9672H195.641V21.4535H200.16V25.0628H195.641V32.3826C195.641 33.1921 195.809 33.7543 196.147 34.0691C196.506 34.3615 197.114 34.5076 197.968 34.5076H200.059V38.1844H197.125Z" fill="white"/>
<path d="M210.455 38.5892C208.881 38.5892 207.475 38.2069 206.239 37.4423C205.002 36.6777 204.024 35.632 203.304 34.3053C202.585 32.9785 202.225 31.4718 202.225 29.7852C202.225 28.0986 202.585 26.6032 203.304 25.2989C204.024 23.9721 205.002 22.9377 206.239 22.1956C207.475 21.431 208.881 21.0487 210.455 21.0487C211.714 21.0487 212.816 21.2849 213.76 21.7571C214.705 22.2293 215.469 22.8927 216.054 23.7473L216.29 21.4535H220.371V38.1844H216.324L216.054 35.7894C215.514 36.5315 214.795 37.1837 213.895 37.7459C213.018 38.3081 211.871 38.5892 210.455 38.5892ZM211.365 34.8112C212.76 34.8112 213.895 34.3502 214.772 33.4282C215.672 32.4837 216.121 31.2807 216.121 29.8189C216.121 28.3572 215.672 27.1654 214.772 26.2434C213.895 25.2989 212.76 24.8267 211.365 24.8267C209.994 24.8267 208.858 25.2877 207.959 26.2097C207.059 27.1317 206.61 28.3235 206.61 29.7852C206.61 31.2469 207.059 32.45 207.959 33.3945C208.858 34.339 209.994 34.8112 211.365 34.8112Z" fill="white"/>
<rect x="6.15625" y="10.5684" width="47.3239" height="31.5493" rx="15.7746" fill="white"/>
<rect x="4.88697" y="9.30885" width="49.8479" height="34.0732" rx="17.0366" stroke="white" stroke-width="2.52394"/>
<rect x="7.41822" y="11.8303" width="44.8" height="29.0254" rx="14.5127" stroke="#0F172A" stroke-width="2.52394"/>
<mask id="path-5-outside-1_1792_86850" maskUnits="userSpaceOnUse" x="-0.351562" y="25.6309" width="25" height="23" fill="black">
<rect fill="white" x="-0.351562" y="25.6309" width="25" height="23"/>
<path fill-rule="evenodd" clip-rule="evenodd" d="M13.4453 28.6309C12.7817 28.6309 12.2362 29.1462 12.1484 29.804C11.3951 35.4486 8.05739 40.2758 3.36421 43.0567C2.33534 43.6663 2.41666 45.2634 3.60173 45.4242C4.41021 45.5339 5.23555 45.5905 6.07411 45.5905C12.4182 45.5905 18.005 42.348 21.2677 37.4299C21.789 36.6441 21.189 35.6506 20.246 35.6506H16.9649C16.1786 35.6506 15.5837 34.9392 15.7229 34.1653L16.4508 30.1161C16.5899 29.3422 15.9951 28.6309 15.2087 28.6309H13.4453Z"/>
</mask>
<path fill-rule="evenodd" clip-rule="evenodd" d="M13.4453 28.6309C12.7817 28.6309 12.2362 29.1462 12.1484 29.804C11.3951 35.4486 8.05739 40.2758 3.36421 43.0567C2.33534 43.6663 2.41666 45.2634 3.60173 45.4242C4.41021 45.5339 5.23555 45.5905 6.07411 45.5905C12.4182 45.5905 18.005 42.348 21.2677 37.4299C21.789 36.6441 21.189 35.6506 20.246 35.6506H16.9649C16.1786 35.6506 15.5837 34.9392 15.7229 34.1653L16.4508 30.1161C16.5899 29.3422 15.9951 28.6309 15.2087 28.6309H13.4453Z" fill="#0F172A"/>
<path d="M15.7229 34.1653L13.2387 33.7187L15.7229 34.1653ZM21.2677 37.4299L23.3709 38.8252L21.2677 37.4299ZM3.36421 43.0567L2.07758 40.8853L3.36421 43.0567ZM3.60173 45.4242L3.94103 42.9231L3.60173 45.4242ZM4.65083 45.228C9.98853 42.0652 13.7915 36.5721 14.6502 30.1379L9.64663 29.4701C8.99871 34.325 6.12625 38.4863 2.07758 40.8853L4.65083 45.228ZM6.07411 43.0666C5.34935 43.0666 4.63737 43.0176 3.94103 42.9231L3.26242 47.9252C4.18305 48.0501 5.12174 48.1145 6.07411 48.1145V43.0666ZM19.1645 36.0347C16.3495 40.2779 11.5369 43.0666 6.07411 43.0666V48.1145C13.2995 48.1145 19.6605 44.4182 23.3709 38.8252L19.1645 36.0347ZM20.246 33.1266H16.9649V38.1745H20.246V33.1266ZM18.207 34.6119L18.9349 30.5627L13.9667 29.6695L13.2387 33.7187L18.207 34.6119ZM15.2087 26.1069H13.4453V31.1548H15.2087V26.1069ZM16.9649 33.1266C17.7513 33.1266 18.3461 33.838 18.207 34.6119L13.2387 33.7187C12.8213 36.0405 14.6059 38.1745 16.9649 38.1745V33.1266ZM23.3709 38.8252C25.1479 36.1466 22.9389 33.1266 20.246 33.1266V38.1745C19.7927 38.1745 19.3628 37.9225 19.1272 37.5197C18.878 37.0935 18.8563 36.4992 19.1645 36.0347L23.3709 38.8252ZM14.6502 30.1379C14.5843 30.6316 14.1471 31.1548 13.4453 31.1548V26.1069C11.4163 26.1069 9.88809 27.6608 9.64663 29.4701L14.6502 30.1379ZM18.9349 30.5627C19.3523 28.2409 17.5678 26.1069 15.2087 26.1069V31.1548C14.4224 31.1548 13.8276 30.4435 13.9667 29.6695L18.9349 30.5627ZM2.07758 40.8853C0.680903 41.7129 0.0248165 43.2171 0.136921 44.6111C0.256889 46.1028 1.3185 47.6615 3.26242 47.9252L3.94103 42.9231C4.22523 42.9617 4.56341 43.1158 4.82427 43.4157C5.06514 43.6926 5.15111 43.9894 5.16856 44.2064C5.20096 44.6092 5.01864 45.0101 4.65083 45.228L2.07758 40.8853Z" fill="white" mask="url(#path-5-outside-1_1792_86850)"/>
<path d="M42.0762 22.8749C42.5556 19.8069 39.8404 17.1954 36.7934 17.7939L31.4141 18.8506C30.356 19.0584 29.2676 19.0584 28.2095 18.8506L22.8302 17.7939C19.7832 17.1954 17.068 19.8069 17.5474 22.8749V22.8749C17.8877 25.0527 19.7636 26.6583 21.9679 26.6583H37.6557C39.86 26.6583 41.7359 25.0527 42.0762 22.8749V22.8749Z" fill="#0F172A"/>
<path fill-rule="evenodd" clip-rule="evenodd" d="M37.9937 42.1122H21.6271C17.4686 42.0357 13.7034 40.35 10.9279 37.6516C10.898 37.2248 10.8828 36.7939 10.8828 36.3596C10.8828 29.9875 14.1539 24.3795 19.1084 21.123L29.8104 23.6558L40.5111 21.1233C45.4654 24.3798 48.7363 29.9877 48.7363 36.3596C48.7363 36.7945 48.7211 37.226 48.6911 37.6534C45.9158 40.3507 42.1513 42.0357 37.9937 42.1122Z" fill="#0F172A"/>
<path fill-rule="evenodd" clip-rule="evenodd" d="M29.8016 31.6101C29.7747 31.6765 29.7471 31.7425 29.7188 31.8082C29.716 31.8025 29.7132 31.7968 29.7103 31.7911C29.7075 31.7968 29.7047 31.8025 29.7019 31.8082C29.6736 31.7425 29.646 31.6765 29.6191 31.6101C26.7722 26.0454 20.982 22.2363 14.3021 22.2363C13.1993 22.2363 12.4663 21.0466 13.2692 20.2907C15.1045 18.5627 17.5768 17.5039 20.2965 17.5039C24.5131 17.5039 28.1352 20.0492 29.7103 23.6871C31.2854 20.0492 34.9076 17.5039 39.1242 17.5039C41.8438 17.5039 44.3162 18.5627 46.1515 20.2907C46.9544 21.0466 46.2214 22.2363 45.1186 22.2363C38.4387 22.2363 32.6485 26.0454 29.8016 31.6101Z" fill="#0F172A"/>
<circle cx="21.9277" cy="29.0273" r="4.73239" fill="white"/>
<circle cx="21.9302" cy="29.0278" r="2.52394" fill="#0F172A"/>
<circle cx="20.0324" cy="27.134" r="0.946479" fill="white"/>
<circle cx="37.7011" cy="29.0273" r="4.73239" fill="white"/>
<circle cx="37.6958" cy="29.0278" r="2.52394" fill="#0F172A"/>
<circle cx="35.8137" cy="27.134" r="0.946479" fill="white"/>
<path d="M27.4453 33.917C27.4453 32.6102 28.5047 31.5508 29.8115 31.5508V31.5508C31.1183 31.5508 32.1777 32.6102 32.1777 33.917L32.1777 34.4393C32.1777 35.0139 31.9495 35.5649 31.5432 35.9712L30.7039 36.8105C30.211 37.3034 29.412 37.3034 28.9192 36.8105L28.0798 35.9712C27.6736 35.5649 27.4453 35.0139 27.4453 34.4393L27.4453 33.917Z" fill="white"/>
</svg>
